<svg width="173" height="44" viewBox="0 0 173 44" fill="none" xmlns="http://www.w3.org/2000/svg">
<path d="M11.568 24.168C12.656 25.688 13.2 27.824 13.2 30.576C13.2 33.328 12.656 35.472 11.568 37.008C10.496 38.544 8.976 39.312 7.008 39.312C5.04 39.312 3.512 38.544 2.424 37.008C1.352 35.472 0.816 33.328 0.816 30.576C0.816 27.824 1.352 25.688 2.424 24.168C3.512 22.648 5.04 21.888 7.008 21.888C8.976 21.888 10.496 22.648 11.568 24.168ZM4.992 30.576C4.992 33.824 5.664 35.448 7.008 35.448C8.352 35.448 9.024 33.824 9.024 30.576C9.024 27.36 8.352 25.752 7.008 25.752C5.664 25.752 4.992 27.36 4.992 30.576ZM23.1116 22.2H26.1116V39H21.9596V28.272H18.4076V24.792C19.8156 24.792 20.8956 24.592 21.6476 24.192C22.3996 23.776 22.8876 23.112 23.1116 22.2ZM31.8234 37.08C31.8234 36.456 32.0394 35.936 32.4714 35.52C32.9034 35.104 33.4314 34.896 34.0554 34.896C34.6794 34.896 35.2074 35.104 35.6394 35.52C36.0874 35.936 36.3114 36.456 36.3114 37.08C36.3114 37.704 36.0874 38.224 35.6394 38.64C35.2074 39.056 34.6794 39.264 34.0554 39.264C33.4314 39.264 32.9034 39.056 32.4714 38.64C32.0394 38.224 31.8234 37.704 31.8234 37.08Z" fill="#41EAD4"/>
<rect x="1" width="172" height="2" rx="1" fill="#41EAD4"/>
<path d="M1 1H3V12C3 12.5523 2.55228 13 2 13C1.44772 13 1 12.5523 1 12V1Z" fill="#41EAD4"/>
</svg>
